<svg width="619" height="619" viewBox="0 0 619 619" fill="none" xmlns="http://www.w3.org/2000/svg">
<path d="M300.215 58.9288V261.664H191.717V58.9288H300.215ZM304.003 55.1405H187.928V265.44H304.003V55.1405Z" stroke="#A2A7A9" stroke-miterlimit="10"/>
<path d="M198.179 97.2078C199.271 98.0031 200.422 98.7149 201.621 99.3371C203.995 100.562 206.458 101.608 208.987 102.469C210.225 102.903 211.463 103.299 212.788 103.707C214.071 104.097 215.39 104.362 216.724 104.5V104.215C215.434 104.012 214.166 103.689 212.936 103.249C211.698 102.853 210.46 102.407 209.222 101.937C206.762 101 204.375 99.8825 202.079 98.5943C200.947 97.9532 199.866 97.2246 198.848 96.4154C197.823 95.6858 196.976 94.7335 196.372 93.6299L196.198 93.2338C196.198 93.0976 196.198 92.9614 196.112 92.8253C196.075 92.5624 196.075 92.2957 196.112 92.0329C196.222 91.4927 196.47 90.9898 196.83 90.5721C197.676 89.6753 198.695 88.9594 199.826 88.4675C200.401 88.179 200.992 87.9227 201.596 87.6999C202.178 87.4399 202.834 87.2666 203.441 87.0562C204.656 86.6212 205.897 86.2575 207.155 85.9667L209.049 85.5087L210.968 85.1868C212.206 84.9392 213.555 84.8773 214.843 84.7411C220.089 84.5579 225.341 84.7814 230.553 85.4096C235.871 85.9598 241.214 86.2367 246.56 86.2391C251.924 86.1657 257.274 85.6939 262.568 84.8278C267.856 83.9575 273.077 82.7164 278.191 81.1138L280.098 80.4824C280.729 80.2596 281.336 79.9872 281.979 79.7396C282.623 79.492 283.217 79.232 283.836 78.9225C284.455 78.613 285.074 78.3778 285.656 78.0064C286.864 77.3273 287.979 76.4951 288.974 75.5304C289.231 75.29 289.463 75.0245 289.667 74.7381C289.889 74.4647 290.076 74.1653 290.224 73.8467C290.395 73.5258 290.496 73.1727 290.522 72.8102C290.547 72.4477 290.497 72.0838 290.373 71.7421L290.125 71.8659C290.172 72.1644 290.159 72.4691 290.087 72.7624C290.014 73.0557 289.884 73.3317 289.704 73.5744C289.547 73.8409 289.351 74.0829 289.123 74.2924C288.914 74.5273 288.677 74.7352 288.417 74.9114C287.392 75.6823 286.268 76.3112 285.074 76.7808C284.505 77.0655 283.836 77.2512 283.267 77.4864C282.659 77.726 282.04 77.9327 281.41 78.1054C280.791 78.2788 280.172 78.4892 279.541 78.6625L277.634 79.133C272.546 80.371 267.346 81.1757 262.147 81.9061C259.534 82.1908 256.935 82.5746 254.322 82.7603C251.71 82.946 249.11 83.1812 246.486 83.305C241.232 83.513 235.97 83.4179 230.726 83.0203C227.953 82.8593 225.155 82.6613 222.333 82.587C222.419 80.7188 222.345 78.8466 222.11 76.9912C221.969 75.793 221.712 74.6113 221.342 73.4629C221.234 73.1554 221.11 72.8537 220.971 72.5592C220.859 72.2745 220.587 71.8783 220.488 71.6678C220.488 71.6678 220.488 71.5812 220.612 71.4574C220.823 71.1174 221.091 70.816 221.404 70.566C221.772 70.2394 222.16 69.9375 222.568 69.6623C223.455 69.1183 224.372 68.6264 225.316 68.1891C227.289 67.1816 229.364 66.3889 231.506 65.8245C233.623 65.2296 235.798 64.8684 237.993 64.7474C240.174 64.6884 242.347 65.0282 244.406 65.7502C248.642 67.2521 252.521 69.617 255.796 72.6954L256.006 72.5097C254.473 70.7997 252.768 69.2523 250.918 67.8919C249.047 66.4768 247.01 65.2961 244.852 64.376C242.654 63.4608 240.31 62.9492 237.931 62.8656C235.581 62.8448 233.235 63.0814 230.937 63.5713C228.62 64.0382 226.353 64.7221 224.165 65.614C223.039 66.0775 221.961 66.6497 220.946 67.3225C219.765 68.0519 218.789 69.0702 218.111 70.2813C217.894 70.7204 217.78 71.203 217.777 71.6926C217.772 72.2672 217.955 72.8278 218.297 73.2896C218.482 73.5744 218.557 73.6363 218.693 73.8591C218.829 74.0819 218.928 74.2676 219.027 74.5029C219.483 75.4751 219.864 76.4808 220.166 77.5112C220.686 79.1949 221.144 80.9281 221.602 82.6613C219.301 82.6058 216.999 82.6802 214.706 82.8841C213.357 83.0574 212.02 83.1565 210.695 83.4536L208.702 83.8374L206.746 84.3573C205.446 84.7008 204.164 85.1141 202.908 85.5953C201.629 86.0211 200.387 86.5511 199.194 87.18C197.911 87.7928 196.772 88.6704 195.852 89.755C195.357 90.3591 195.036 91.0867 194.923 91.8596C194.882 92.2742 194.912 92.6927 195.01 93.0976C195.044 93.286 195.089 93.472 195.146 93.6547L195.394 94.1623C196.085 95.3711 197.037 96.4113 198.179 97.2078Z" fill="#919191"/>
<path d="M253.641 129.99C253.276 129.09 252.863 128.21 252.403 127.353C251.45 125.645 250.423 123.998 249.346 122.401C247.575 119.777 245.731 117.226 243.824 114.701C244.592 113.289 245.322 111.878 245.978 110.417C246.758 108.734 247.476 107.025 248.095 105.267C249.886 105.618 251.725 105.66 253.53 105.391C255.592 105.058 257.586 104.394 259.435 103.423C260.302 102.94 261.181 102.469 262.023 101.949C262.865 101.429 263.694 100.86 264.499 100.228C266.127 99.0046 267.585 97.5681 268.832 95.9574C269.487 95.129 270.005 94.2011 270.367 93.209C270.546 92.6991 270.647 92.1647 270.664 91.6244C270.698 91.065 270.54 90.5107 270.218 90.0521L269.971 90.2131C270.018 90.6563 269.974 91.1044 269.842 91.5301C269.71 91.9558 269.493 92.3501 269.203 92.6891C268.671 93.4218 268.052 94.087 267.358 94.6699C267.012 94.9794 266.665 95.2765 266.294 95.5488C265.922 95.8212 265.576 96.1307 265.18 96.3907L264.041 97.2078L262.803 97.9629L257.999 101.033C256.491 102.049 254.814 102.786 253.047 103.212C251.275 103.615 249.441 103.665 247.65 103.361C245.819 103.034 244.055 102.411 242.425 101.516C239.065 99.6503 236.117 97.1235 233.759 94.088L233.524 94.2489C234.572 95.9151 235.796 97.4633 237.176 98.8667C238.55 100.311 240.087 101.591 241.757 102.68C243.452 103.764 245.306 104.574 247.253 105.081C244.777 108.486 242.574 111.94 240.234 115.295C238.897 117.226 237.585 119.17 236.186 120.965C235.538 121.867 234.795 122.697 233.97 123.441C233.653 123.72 233.288 123.938 232.893 124.085C232.831 124.085 232.756 124.085 232.707 124.085C232.657 124.085 232.645 124.085 232.608 124.085H232.472C232.417 124.03 232.355 123.984 232.286 123.949C231.594 123.188 231.063 122.296 230.726 121.324C230.312 120.243 229.961 119.14 229.674 118.019C229.08 115.753 228.621 113.426 228.225 111.086C227.383 106.418 226.814 101.677 226.306 96.9354H226.022C226.022 101.714 226.356 106.493 226.814 111.271C227.074 113.661 227.396 116.05 227.879 118.427C228.11 119.636 228.412 120.831 228.782 122.005C228.974 122.619 229.21 123.219 229.488 123.8C229.794 124.465 230.213 125.073 230.726 125.595L231.234 126.028C231.453 126.155 231.681 126.266 231.915 126.363C232.167 126.427 232.423 126.473 232.682 126.499C232.923 126.499 233.164 126.474 233.4 126.425C234.148 126.247 234.852 125.919 235.468 125.459C236.514 124.695 237.473 123.82 238.327 122.847C239.955 121.011 241.394 119.016 242.623 116.892C242.97 116.298 243.292 115.654 243.626 115.072C245.433 117.548 247.191 120.148 248.85 122.76C249.89 124.394 250.868 126.053 251.76 127.712C252.223 128.549 252.636 129.413 252.998 130.3C253.175 130.728 253.316 131.171 253.419 131.624C253.555 132.181 253.555 132.218 253.233 132.441C252.406 132.787 251.517 132.96 250.621 132.949C249.68 132.949 248.727 132.949 247.761 132.949C245.854 132.85 243.936 132.664 242.029 132.429C238.204 131.971 234.391 131.364 230.578 130.708C226.764 130.052 222.976 129.359 219.176 128.641L213.468 127.551L212.045 127.279L211.314 127.143H210.943H210.831H210.46H210.188C210.072 127.179 209.964 127.233 209.866 127.304C209.688 127.413 209.545 127.572 209.457 127.762C209.419 127.838 209.386 127.916 209.358 127.997V128.17C209.33 128.363 209.33 128.559 209.358 128.752C209.374 129.043 209.411 129.333 209.47 129.619C209.581 130.151 209.73 130.621 209.878 131.104C211.116 134.88 212.75 138.384 214.285 141.949L218.928 152.584C221.936 159.69 224.87 166.833 227.148 174.137C228.311 177.726 229.139 181.414 229.624 185.155C229.877 186.895 229.835 188.666 229.5 190.392C229.341 191.117 229.015 191.796 228.547 192.373C227.965 193.029 227.309 193.722 226.604 194.378C223.905 197.065 220.983 199.578 218.074 202.116C215.164 204.654 212.218 207.179 209.408 209.841C206.527 212.472 203.799 215.267 201.237 218.21C199.973 219.712 198.826 221.31 197.808 222.989C196.76 224.665 196.041 226.527 195.691 228.473L195.975 228.535C197.015 224.821 199.566 221.825 202.165 219.076C204.851 216.334 207.691 213.747 210.67 211.327C216.6 206.375 222.79 201.782 228.56 196.471C229.278 195.777 229.959 195.109 230.677 194.329C231.452 193.417 232.003 192.335 232.286 191.172C232.739 189.103 232.827 186.97 232.546 184.871C231.989 180.943 231.052 177.079 229.748 173.332C227.173 165.983 224.227 158.768 220.921 151.717L216.093 141.157C214.496 137.653 212.825 134.125 211.562 130.584C211.41 130.18 211.281 129.766 211.178 129.346C211.173 129.256 211.173 129.165 211.178 129.074L211.686 129.148L213.109 129.396L218.829 130.386C222.654 131.042 226.467 131.624 230.305 132.243C234.143 132.862 237.981 133.32 241.856 133.704C243.787 133.877 245.731 134.026 247.687 134.075C248.652 134.075 249.643 134.075 250.621 134.075C251.116 134.075 251.623 133.989 252.119 133.902C252.655 133.822 253.172 133.641 253.641 133.37C253.793 133.281 253.926 133.163 254.032 133.023C254.139 132.883 254.216 132.723 254.26 132.553C254.3 132.252 254.266 131.946 254.161 131.661C254.046 131.088 253.872 130.528 253.641 129.99Z" fill="#919191"/>
<path d="M296.439 133.494C295.997 133.051 295.459 132.716 294.867 132.516C293.833 132.212 292.762 132.053 291.685 132.045C287.563 132.045 283.601 132.627 279.627 132.949C277.634 133.122 275.653 133.258 273.672 133.246C272.688 133.255 271.704 133.201 270.726 133.085C269.766 132.997 268.824 132.772 267.928 132.416C266.144 131.618 264.561 130.429 263.298 128.938C262 127.441 260.859 125.815 259.893 124.085C257.961 120.585 256.425 116.881 255.313 113.042L255.04 113.116C256.063 117.016 257.525 120.787 259.398 124.357C260.34 126.154 261.469 127.847 262.766 129.408C264.074 131.013 265.723 132.307 267.594 133.196C268.554 133.602 269.567 133.873 270.602 134.001C271.612 134.141 272.629 134.22 273.648 134.236C275.678 134.236 277.696 134.236 279.714 134.075C283.712 133.84 287.736 133.32 291.636 133.456C292.563 133.485 293.483 133.635 294.372 133.902C294.732 134.029 295.061 134.232 295.337 134.496C295.535 134.746 295.64 135.057 295.634 135.375C295.618 135.563 295.589 135.749 295.548 135.932C295.473 136.118 295.436 136.291 295.337 136.49C295.127 136.916 294.891 137.329 294.632 137.728C294.099 138.52 293.493 139.3 292.874 140.08C290.398 143.15 287.662 146.096 284.988 149.08C279.615 155.035 274.242 161.027 269.315 167.427C266.812 170.595 264.489 173.902 262.357 177.331C261.812 178.198 261.305 179.077 260.822 179.98C260.339 180.884 259.869 181.8 259.411 182.729C258.952 183.657 258.593 184.623 258.173 185.576C257.752 186.529 257.442 187.532 257.195 188.56C256.596 190.642 256.345 192.809 256.452 194.973C256.452 195.53 256.563 196.087 256.65 196.632L257.095 198.278C257.417 199.306 257.776 200.185 258.135 201.15C259.584 204.864 261.069 208.578 262.456 212.354C263.843 216.13 265.204 219.782 266.368 223.62C267.501 227.409 268.406 231.262 269.079 235.158C269.7 239.067 269.933 243.027 269.773 246.981C269.562 250.954 268.923 254.893 267.866 258.73L268.126 258.816C269.59 255.047 270.596 251.115 271.122 247.105C271.518 243.054 271.518 238.974 271.122 234.923C270.642 230.889 269.885 226.894 268.856 222.964C267.792 219.052 266.529 215.202 265.142 211.401C263.756 207.6 262.307 203.861 260.909 200.123C260.587 199.194 260.166 198.229 259.881 197.35L259.522 196.112C259.448 195.678 259.411 195.233 259.349 194.787C259.24 192.944 259.432 191.096 259.918 189.315C260.116 188.386 260.475 187.483 260.748 186.567C261.02 185.65 261.428 184.759 261.862 183.88C262.295 183.001 262.666 182.11 263.1 181.243C263.533 180.377 264.016 179.51 264.511 178.668C266.523 175.249 268.722 171.942 271.097 168.764C275.851 162.376 281.076 156.384 286.349 150.281C288.962 147.248 291.636 144.252 294.136 141.058C294.755 140.253 295.374 139.448 295.932 138.582C296.223 138.131 296.487 137.664 296.724 137.183C296.843 136.901 296.942 136.612 297.021 136.316C297.09 136.016 297.127 135.708 297.132 135.4C297.144 134.701 296.897 134.022 296.439 133.494Z" fill="#919191"/>
<path d="M105.292 111.952V112.299C105.49 114.775 106.53 129.817 103.088 134.125C99.3743 138.817 90.5721 144.128 77.0903 146.951C63.6085 149.773 53.9397 151.321 49.5572 161.336C45.1747 171.352 41.733 203.577 41.733 203.577C44.6413 206.061 48.0607 207.874 51.7485 208.888C57.6909 210.46 61.442 209.829 63.6333 210.46L65.8245 211.079L71.1479 201.064L80.532 250.497L80.2225 268.015C80.2225 268.015 64.8836 300.549 59.5726 329.023C54.2616 357.497 52.7636 444.442 52.4417 457.911C52.1199 471.381 51.2037 483.909 51.2037 483.909L50.8942 536.933H210.46C210.46 536.933 209.829 411.635 203.886 371.598C197.944 331.561 177.616 271.481 176.366 268.039C175.481 266.063 174.949 263.947 174.793 261.788C174.793 260.55 174.484 251.463 173.852 249.581C173.473 248.378 173.265 247.128 173.233 245.867C173.233 245.867 178.544 232.1 178.544 224.907V211.079L182.258 217.653C182.258 217.653 185.972 220.773 193.834 217.331C201.695 213.889 206.746 205.137 209.222 203.255C210.497 202.365 211.653 201.317 212.664 200.135C212.664 200.135 206.399 176.044 200.779 162.587C195.158 149.13 173.543 144.437 166.362 141.937C159.182 139.436 145.403 135.053 143.212 130.993C141.021 126.932 141.59 111.952 141.59 111.952H105.292Z" fill="#263238" stroke="#263238" stroke-miterlimit="10"/>
<path d="M178.52 211.079L182.234 217.653C182.234 217.653 185.948 220.773 193.809 217.331C201.67 213.889 206.746 205.137 209.222 203.255C210.497 202.365 211.653 201.317 212.664 200.135C212.664 200.135 206.399 176.044 200.779 162.587C195.158 149.13 173.543 144.437 166.362 141.937C159.182 139.436 145.403 135.053 143.212 130.993C141.021 126.932 141.59 111.952 141.59 111.952H105.292V112.299C105.49 114.775 106.53 129.817 103.088 134.125C99.3743 138.817 90.5721 144.128 77.0903 146.951C63.6085 149.773 53.9397 151.321 49.5572 161.336C45.1747 171.352 41.733 203.577 41.733 203.577C44.6413 206.061 48.0607 207.874 51.7485 208.888C57.6909 210.46 61.442 209.829 63.6333 210.46L65.8245 211.079L71.1479 201.064L80.532 250.497C80.532 250.497 136.477 261.849 173.134 245.805C173.134 245.805 178.445 232.038 178.445 224.846L178.52 211.079Z" fill="white" stroke="#263238" stroke-miterlimit="10"/>
<path d="M123.156 155.703C144.772 156.52 158.006 147.632 164.605 141.342C157.177 138.78 145.205 134.756 143.175 130.993C140.984 126.92 141.553 111.952 141.553 111.952H105.292V112.299C105.49 114.775 106.53 129.817 103.088 134.125C100.105 137.839 93.9395 141.974 84.7783 144.933C89.4703 148.709 100.439 154.849 123.156 155.703Z" fill="#858585" stroke="#263238" stroke-linecap="round" stroke-linejoin="round"/>
<path d="M141.553 111.952C141.553 116.038 133.444 119.38 123.429 119.38C113.413 119.38 105.292 116.075 105.292 111.952C105.292 107.83 113.413 104.524 123.429 104.524C133.444 104.524 141.553 107.879 141.553 111.952Z" fill="#A3A3A3" stroke="#263238" stroke-linecap="round" stroke-linejoin="round"/>
<path d="M96.6879 253.976C95.2878 256.03 94.701 258.532 95.0414 260.995C95.4499 265.526 95.4499 274.192 95.4499 274.192C95.4499 274.192 93.3948 298.544 93.8034 319.59" stroke="#808080" stroke-miterlimit="10"/>
<path d="M90.9188 270.07C90.9188 270.07 83.0699 315.467 85.9668 336.922" stroke="#808080" stroke-miterlimit="10"/>
<path d="M68.9443 331.685C68.8081 332.923 68.709 334.087 68.6348 335.275" stroke="#808080" stroke-miterlimit="10"/>
<path d="M88.0218 274.613C88.0218 274.613 74.4038 300.5 69.947 324.938" stroke="#808080" stroke-miterlimit="10"/>
<path d="M148.993 338.816C148.919 340.586 148.82 342.307 148.684 343.941" stroke="#808080" stroke-miterlimit="10"/>
<path d="M144.97 258.098V272.546C144.97 272.546 149.204 305.761 149.13 331.648" stroke="#808080" stroke-miterlimit="10"/>
<path d="M163.131 252.738L164.778 268.423C164.778 268.423 175.511 305.142 175.511 334.854" stroke="#808080" stroke-miterlimit="10"/>
<path d="M187.508 323.96C187.997 327.019 188.261 330.11 188.3 333.208" stroke="#808080" stroke-miterlimit="10"/>
<path d="M168.492 250.262C168.492 251.5 170.559 266.356 170.559 266.356C170.559 266.356 180.835 292.651 185.75 314.638" stroke="#808080" stroke-miterlimit="10"/>
<path d="M362.115 105.44C352.593 105.44 343.462 109.223 336.729 115.956C329.996 122.689 326.213 131.821 326.213 141.342V519.539H337.355V141.342C337.355 134.776 339.964 128.478 344.607 123.834C349.251 119.191 355.548 116.582 362.115 116.582H593.002V105.44H362.115Z" fill="white" stroke="#263238" stroke-miterlimit="10"/>
<path d="M549.041 180.439L541.959 175.548C531.71 168.278 523.72 158.262 518.908 146.653L513.003 132.887H503.631L497.676 146.653C492.857 158.262 484.863 168.276 474.612 175.548L467.531 180.439C465.499 181.952 463.859 183.929 462.747 186.205C461.636 188.482 461.086 190.992 461.143 193.524H555.379C555.442 190.996 554.899 188.489 553.797 186.213C552.694 183.937 551.063 181.957 549.041 180.439ZM510.947 187.73H470.44C470.44 183.385 477.373 179.361 480.109 177.145L485.061 173.184C492.373 166.961 497.873 158.883 500.982 149.798L505.067 138.656H511.554L515.639 149.798C518.765 158.879 524.283 166.95 531.61 173.159L536.562 177.121C539.31 179.337 546.094 183.311 546.094 187.706L510.947 187.73Z" fill="white" stroke="#263238" stroke-linejoin="round"/>
<path d="M508.261 132.664V122.562C508.261 122.562 514.03 118.229 514.03 111.965C514.03 105.7 509.227 103.299 503.928 105.23" stroke="#263238" stroke-linecap="round" stroke-linejoin="round"/>
<path d="M494.655 149.538L505.562 180.897L518.908 146.654C518.908 146.654 541.699 169.99 549.189 174.075C556.679 178.161 563.5 183.62 565.556 194.527C567.611 205.434 578.505 314.452 578.505 314.452L553.287 315.814L555.565 377.59H453.764L459.954 313.214H436.036C436.036 313.214 451.028 195.282 455.126 187.099C459.224 178.916 494.655 149.538 494.655 149.538Z" fill="#263238" stroke="#263238" stroke-linejoin="round"/>
<path d="M484.429 157.04L490.57 190.442L503.519 168.628L495.336 145.453L484.429 157.04Z" fill="white" stroke="#263238" stroke-linejoin="round"/>
<path d="M518.908 146.654L507.605 169.309L519.192 191.803L528.737 154.304L518.908 146.654Z" fill="white" stroke="#263238" stroke-linejoin="round"/>
<path d="M553.287 315.863L547.827 212.255" stroke="#808080" stroke-miterlimit="10"/>
<path d="M459.892 313.14L469.437 212.255" stroke="#263238" stroke-linejoin="round"/>
<path d="M522.04 180.439L515.008 175.548C504.761 168.275 496.772 158.26 491.957 146.653L486.051 132.887H476.63L470.725 146.653C465.909 158.26 457.92 168.275 447.673 175.548L440.592 180.439C438.56 181.952 436.92 183.929 435.809 186.205C434.697 188.482 434.147 190.992 434.204 193.524H528.428C528.485 190.992 527.935 188.482 526.823 186.205C525.712 183.929 524.072 181.952 522.04 180.439ZM483.947 187.73H443.452C443.452 183.385 450.372 179.361 453.12 177.145L458.072 173.184C464.931 167.65 470.452 159.566 474.03 149.823L478.116 138.681H484.615L488.701 149.823C492.266 159.541 497.8 167.65 504.658 173.184L509.61 177.145C512.359 179.361 519.155 183.335 519.155 187.73H483.947Z" fill="white" stroke="#263238" stroke-linejoin="round"/>
<path d="M481.26 132.664V122.562C481.26 122.562 487.042 118.229 487.042 111.965C487.042 105.7 482.226 103.299 476.927 105.23" stroke="#263238" stroke-linecap="round" stroke-linejoin="round"/>
<path d="M467.667 149.538L478.574 180.897L491.907 146.654C491.907 146.654 514.699 169.99 522.201 174.075C529.703 178.161 536.512 183.62 538.555 194.527C540.598 205.434 551.504 314.452 551.504 314.452L526.286 315.814L528.626 377.59H426.763L432.953 313.214H409.035C409.035 313.214 424.04 195.282 428.125 187.099C432.211 178.916 467.667 149.538 467.667 149.538Z" fill="#EFE5D9" stroke="#263238" stroke-linejoin="round"/>
<path d="M457.441 157.04L463.569 190.442L476.531 168.628L468.348 145.453L457.441 157.04Z" fill="white" stroke="#263238" stroke-linejoin="round"/>
<path d="M491.907 146.654L480.616 169.309L492.204 191.803L501.749 154.304L491.907 146.654Z" fill="white" stroke="#263238" stroke-linejoin="round"/>
<path d="M526.286 315.863L520.827 212.255" stroke="#263238" stroke-linejoin="round"/>
<path d="M432.904 313.14L442.437 212.255" stroke="#263238" stroke-linejoin="round"/>
<path d="M462.913 184.697L455.485 179.522C444.661 171.846 436.221 161.274 431.134 149.018L424.944 134.472H415.04L408.85 149.018C403.723 161.286 395.234 171.856 384.362 179.51L376.934 184.685C374.782 186.28 373.043 188.369 371.865 190.775C370.687 193.181 370.103 195.835 370.162 198.513H469.685C469.742 195.837 469.157 193.186 467.979 190.782C466.801 188.378 465.064 186.291 462.913 184.697ZM422.678 192.398H379.905C379.905 187.805 387.222 183.558 390.119 181.256L395.293 177.034C402.536 171.191 408.392 162.624 412.155 152.361L416.476 140.587H423.322L427.642 152.361C431.356 162.624 437.262 171.191 444.504 177.034L449.679 181.218C452.576 183.558 459.744 187.805 459.744 192.36L422.678 192.398Z" fill="white" stroke="#263238" stroke-linejoin="round"/>
<path d="M419.843 134.236V123.552C419.843 123.552 425.934 118.984 425.934 112.41C425.934 105.837 420.92 103.224 415.262 105.23" stroke="#263238" stroke-linecap="round" stroke-linejoin="round"/>
<path d="M391.406 168.578C391.406 168.578 402.746 181.652 416.996 181.875C432.124 182.11 449.902 168.876 449.902 168.876C453.952 172.374 458.369 175.424 463.074 177.975C470.985 182.296 476.197 188.609 480.344 199.578C484.974 211.785 495.2 245.013 495.2 245.013L465.76 246.449L469.796 313.214H371.883L378.519 245.198H349.933C349.933 245.198 359.404 200.296 363.724 191.655C368.045 183.014 391.406 168.578 391.406 168.578Z" fill="white" stroke="#263238" stroke-linejoin="round"/>
<path d="M378.519 245.198L380.017 209.507" stroke="#263238" stroke-linejoin="round"/>
<path d="M465.76 246.449L463.458 211.785" stroke="#263238" stroke-linejoin="round"/>
<path d="M25.1686 537.242H594.649" stroke="#263238" stroke-linecap="round" stroke-linejoin="round"/>
<path d="M52.2189 465.983C52.2189 465.983 51.9341 458.555 48.7896 453.405C45.6451 448.255 34.2184 444.541 28.2141 447.116C25.177 448.367 22.2171 449.797 19.35 451.4C25.3148 453.274 30.9898 455.97 36.2115 459.409C41.0402 462.675 46.4888 464.913 52.2189 465.983Z" fill="#EFE5D9" stroke="#263238" stroke-linecap="round" stroke-linejoin="round"/>
<path d="M64.2151 469.697C64.2151 469.697 57.3565 463.123 56.2176 453.975C55.0786 444.826 64.7969 430.539 64.7969 430.539C68.0094 436.646 70.5935 443.063 72.5097 449.691C75.3694 459.979 64.2151 469.697 64.2151 469.697Z" fill="#EFE5D9" stroke="#263238" stroke-linecap="round" stroke-linejoin="round"/>
<path d="M77.3627 466.837C77.3627 466.837 75.6543 458.258 78.7988 452.266C81.9433 446.274 90.2255 446.831 98.5078 449.406C106.79 451.981 109.377 451.981 109.377 451.981C103.663 455.813 97.6374 459.159 91.3645 461.984C86.8112 463.914 82.1334 465.535 77.3627 466.837Z" fill="#EFE5D9" stroke="#263238" stroke-linecap="round" stroke-linejoin="round"/>
<path d="M64.3018 497.676C64.1048 497.676 63.9158 497.598 63.7765 497.458C63.6372 497.319 63.559 497.13 63.559 496.933V456.079C63.559 455.882 63.6372 455.693 63.7765 455.554C63.9158 455.415 64.1048 455.336 64.3018 455.336C64.3987 455.336 64.4947 455.356 64.5842 455.393C64.6736 455.431 64.7547 455.486 64.8227 455.555C64.8907 455.624 64.9442 455.706 64.9802 455.796C65.0161 455.886 65.0338 455.982 65.0322 456.079V496.933C65.0338 497.03 65.0161 497.126 64.9802 497.217C64.9442 497.307 64.8907 497.389 64.8227 497.458C64.7547 497.527 64.6736 497.582 64.5842 497.619C64.4947 497.657 64.3987 497.676 64.3018 497.676Z" fill="#263238"/>
<path d="M67.731 497.676H67.6196C67.4279 497.645 67.2554 497.542 67.1378 497.388C67.0202 497.233 66.9667 497.039 66.9882 496.847C67.1367 495.819 70.5908 471.604 82.3146 458.159C82.448 458.025 82.6272 457.948 82.8159 457.941C83.0045 457.935 83.1885 458.001 83.3304 458.126C83.4722 458.25 83.5614 458.424 83.5797 458.612C83.5979 458.8 83.544 458.987 83.4288 459.137C71.9897 472.247 68.4862 496.797 68.4614 497.045C68.4348 497.22 68.3467 497.379 68.2128 497.495C68.0788 497.611 67.908 497.675 67.731 497.676Z" fill="#263238"/>
<path d="M60.8725 497.057C60.7756 497.057 60.6796 497.038 60.5901 497C60.5007 496.963 60.4196 496.908 60.3516 496.839C60.2836 496.77 60.2301 496.688 60.1941 496.597C60.1582 496.507 60.1405 496.411 60.1421 496.314C60.1421 496.079 60.2535 472.792 46.4127 461.749C46.2802 461.62 46.2006 461.446 46.1896 461.262C46.1785 461.077 46.2367 460.895 46.3528 460.751C46.4689 460.607 46.6346 460.511 46.8174 460.483C47.0002 460.455 47.187 460.496 47.3412 460.598C61.7391 472.124 61.6277 495.349 61.6153 496.327C61.6154 496.424 61.5961 496.52 61.5586 496.609C61.5211 496.698 61.4662 496.779 61.397 496.847C61.3279 496.915 61.2459 496.969 61.1559 497.005C61.0658 497.041 60.9695 497.059 60.8725 497.057Z" fill="#263238"/>
<path d="M72.2992 496.772C72.2338 496.784 72.1666 496.784 72.1012 496.772C71.9132 496.72 71.7533 496.596 71.656 496.427C71.5587 496.258 71.5318 496.057 71.5812 495.869C73.0374 490.882 75.2953 486.165 78.2664 481.904C78.3847 481.747 78.5595 481.643 78.7537 481.612C78.9479 481.582 79.1461 481.629 79.3063 481.743C79.3853 481.801 79.4521 481.873 79.503 481.957C79.5539 482.04 79.5877 482.133 79.6027 482.229C79.6176 482.326 79.6134 482.425 79.5901 482.52C79.5669 482.615 79.5251 482.704 79.4673 482.783C76.6248 486.895 74.4559 491.433 73.042 496.228C72.9996 496.39 72.9026 496.533 72.7673 496.632C72.6321 496.731 72.4668 496.781 72.2992 496.772Z" fill="#263238"/>
<path d="M76.756 485.407C76.756 485.407 76.4713 477.41 79.9005 476.271C83.3298 475.132 86.4743 477.979 89.0494 479.7C91.6244 481.421 94.4718 483.13 94.4718 488.267C94.4718 493.405 92.4786 502.851 92.4786 502.851C92.4786 502.851 89.6188 493.987 84.7535 489.988C79.8882 485.989 76.756 485.407 76.756 485.407Z" fill="#EFE5D9" stroke="#263238" stroke-linecap="round" stroke-linejoin="round"/>
<path d="M55.71 497.057C55.554 497.057 55.4018 497.008 55.2752 496.917C55.1485 496.826 55.0537 496.697 55.0043 496.549C55.0043 496.475 52.714 489.567 47.5763 485.469C47.4988 485.41 47.4339 485.336 47.3856 485.251C47.3372 485.166 47.3063 485.072 47.2948 484.976C47.2833 484.879 47.2913 484.78 47.3184 484.686C47.3455 484.593 47.3911 484.505 47.4525 484.429C47.5762 484.278 47.7536 484.181 47.9475 484.158C48.1414 484.135 48.3367 484.188 48.4924 484.306C54.0263 488.688 56.3537 495.794 56.4528 496.091C56.5111 496.279 56.4931 496.481 56.4027 496.655C56.3122 496.829 56.1567 496.96 55.97 497.02L55.71 497.057Z" fill="#263238"/>
<path d="M52.2188 487.982C52.2188 487.982 53.3578 482.82 50.498 479.106C47.6382 475.392 40.7797 476.246 37.3505 480.245C33.9212 484.244 29.0682 496.252 29.0682 496.252C29.0682 496.252 35.9268 490.817 43.9242 490.817C51.9217 490.817 52.2188 487.982 52.2188 487.982Z" fill="#EFE5D9" stroke="#263238" stroke-linecap="round" stroke-linejoin="round"/>
<path d="M74.9857 540.87H52.1818L40.7798 503.148H86.3877L74.9857 540.87Z" fill="white" stroke="#263238" stroke-linecap="round" stroke-linejoin="round"/>
<path d="M86.5114 496.896H40.6436V503.148H86.5114V496.896Z" fill="white" stroke="#263238" stroke-linecap="round" stroke-linejoin="round"/>
<path d="M540.263 472.569H529.542V478.772H540.263V472.569Z" fill="white" stroke="#263238" stroke-linecap="round" stroke-linejoin="round"/>
<path d="M555.169 540.87H514.649L524.244 477.088H545.574L555.169 540.87Z" fill="#858585" stroke="#263238" stroke-linecap="round" stroke-linejoin="round"/>
<path d="M522.944 487.623L542.554 477.175" stroke="#263238" stroke-linecap="round" stroke-linejoin="round"/>
<path d="M522.944 492.947L542.554 482.51" stroke="#263238" stroke-linecap="round" stroke-linejoin="round"/>
<path d="M546.825 488.044L526.992 499.137" stroke="#263238" stroke-linecap="round" stroke-linejoin="round"/>
<path d="M526.36 505.958L533.182 502.541" stroke="#263238" stroke-linecap="round" stroke-linejoin="round"/>
<path d="M550.662 512.99L522.089 527.92" stroke="#263238" stroke-linecap="round" stroke-linejoin="round"/>
<path d="M525.073 533.677L547.889 521.73" stroke="#263238" stroke-linecap="round" stroke-linejoin="round"/>
<path d="M522.523 534.742L516.976 537.936" stroke="#263238" stroke-linecap="round" stroke-linejoin="round"/>
<path d="M552.792 530.05L538.084 537.725" stroke="#263238" stroke-linecap="round" stroke-linejoin="round"/>
<path d="M511.529 472.569H500.808V478.772H511.529V472.569Z" fill="white" stroke="#263238" stroke-linecap="round" stroke-linejoin="round"/>
<path d="M526.422 540.87H485.915L495.497 477.088H516.84L526.422 540.87Z" fill="white" stroke="#263238" stroke-linecap="round" stroke-linejoin="round"/>
<path d="M494.21 487.623L513.82 477.175" stroke="#263238" stroke-linecap="round" stroke-linejoin="round"/>
<path d="M494.21 492.947L513.82 482.51" stroke="#263238" stroke-linecap="round" stroke-linejoin="round"/>
<path d="M518.078 488.044L498.258 499.137" stroke="#263238" stroke-linecap="round" stroke-linejoin="round"/>
<path d="M497.614 505.958L504.435 502.541" stroke="#263238" stroke-linecap="round" stroke-linejoin="round"/>
<path d="M521.916 512.99L493.355 527.92" stroke="#263238" stroke-linecap="round" stroke-linejoin="round"/>
<path d="M496.339 533.677L519.143 521.73" stroke="#263238" stroke-linecap="round" stroke-linejoin="round"/>
<path d="M493.776 534.742L488.23 537.936" stroke="#263238" stroke-linecap="round" stroke-linejoin="round"/>
<path d="M524.045 530.05L509.338 537.725" stroke="#263238" stroke-linecap="round" stroke-linejoin="round"/>
<path d="M334.136 318.971C334.136 318.971 285.037 328.454 271.828 331.759C258.618 335.065 253.666 344.969 249.135 356.111C244.604 367.253 212.404 437.819 210.757 441.941C209.111 446.064 219.423 448.54 232.212 453.083C245 457.627 252.428 462.579 256.142 457.627C259.856 452.675 269.352 433.684 269.352 433.684L265.229 537.292H417.503L410.892 429.177C410.892 429.177 416.674 344.993 416.265 341.688C415.857 338.383 365.507 318.575 360.134 318.166C354.761 317.757 334.136 318.971 334.136 318.971Z" fill="#EFE5D9"/>
<g opacity="0.4">
<path d="M267.309 484.826L267.061 491.164C315.966 498.848 365.708 499.623 414.829 493.467L414.445 487.277C365.532 493.452 315.989 492.627 267.309 484.826Z" fill="white"/>
<path d="M398.376 386.603C395.492 389.153 369.085 411.796 338.494 413.839C306.096 415.98 277.981 399.478 277.832 399.379L240.766 375.287C239.949 377.12 239.095 379.001 238.204 381.007L274.564 404.64C275.802 405.358 304.573 422.269 338.94 420.016C373.307 417.763 401.669 392.05 402.858 390.96C403.041 390.791 403.204 390.6 403.34 390.391C406.673 385.593 410.374 381.06 414.408 376.835C414.606 373.641 414.804 370.509 414.99 367.513C408.784 373.262 403.214 379.662 398.376 386.603Z" fill="white"/>
<path d="M222.531 415.671L219.98 421.316L265.464 441.285C266.603 439.094 267.594 437.15 268.299 435.776L222.531 415.671Z" fill="white"/>
<path d="M249.828 354.427C266.021 362.746 312.063 385.872 326.77 387.296C341.478 388.72 390.812 354.439 412.415 338.853C410.744 337.937 408.602 336.885 406.138 335.746C376.983 356.594 337.491 382.109 327.364 381.131C315.244 379.967 275.678 360.815 252.379 348.782C251.475 350.602 250.633 352.483 249.828 354.427Z" fill="white"/>
<path d="M269.674 443.117C271.778 443.761 321.67 458.766 360.048 454.259C392.929 450.446 407.253 439.403 411.239 435.59L410.843 429.103C410.843 429.103 410.991 426.912 411.251 423.247C409.485 425.512 408.147 428.079 407.302 430.824C404.826 433.3 391.678 444.442 359.391 448.156C323.341 452.328 274.898 438.252 271.642 437.249L269.253 436.197L268.993 442.833L269.327 442.994L269.674 443.117Z" fill="white"/>
<path d="M311.592 401.112C338.333 405.655 370.793 390.131 391.109 372.725C398.401 366.473 407.413 359.627 415.782 353.548C415.956 350.354 416.092 347.655 416.179 345.625C406.658 352.446 395.702 360.629 387.086 368.02C367.872 384.498 337.392 399.23 312.632 395.009C292.49 391.579 259.584 369.097 247.34 360.345C246.622 361.991 245.768 363.947 244.79 366.151C258.111 375.646 290.534 397.534 311.592 401.112Z" fill="white"/>
<path d="M416.401 519.242L416.018 513.052C384.337 514.686 321.335 516.89 266.22 512.396L265.972 518.586C290.422 520.567 316.359 521.26 340.462 521.26C371.041 521.26 398.636 520.158 416.401 519.242Z" fill="white"/>
<path d="M289.519 473.684C327.104 479.118 396.878 473.758 413.529 472.347L412.415 454.012C412.142 454.551 411.898 455.105 411.685 455.671C411.478 456.194 411.422 456.764 411.524 457.317L413.133 466.157C397.039 467.506 326.931 472.842 290.398 467.555C283.155 466.503 275.628 465.216 268.114 463.841L267.866 470.093C275.17 471.418 282.462 472.656 289.519 473.684Z" fill="white"/>
<path d="M270.713 422.356C273.189 423.817 307.952 444.343 345.154 439.899C382.889 435.405 407.958 410.719 409.01 409.667C409.289 409.41 409.505 409.092 409.642 408.738C410.428 407.484 411.391 406.35 412.502 405.371C412.687 402.61 412.873 399.725 413.071 396.705C407.29 401.112 405.086 404.133 404.294 405.556C401.248 408.441 377.714 429.735 344.424 433.709C308.844 437.967 274.192 417.181 273.858 416.971L273.697 416.872L231.915 394.922C231.06 396.791 230.206 398.636 229.364 400.567L270.713 422.356Z" fill="white"/>
</g>
<path d="M269.352 433.684L279.652 384.04" stroke="#263238" stroke-linecap="round" stroke-linejoin="round"/>
<path d="M262.369 336.092C277.225 346.454 320.555 376.179 328.776 375.498C336.303 374.879 370.558 342.765 386.541 327.401C374.384 322.548 362.585 318.327 360.134 318.141C354.774 317.733 334.136 318.971 334.136 318.971C334.136 318.971 285.037 328.454 271.828 331.759C268.423 332.574 265.21 334.046 262.369 336.092Z" fill="white" stroke="#263238" stroke-linecap="round" stroke-linejoin="round"/>
<path d="M334.136 318.971C334.136 318.971 285.037 328.454 271.828 331.759C258.618 335.065 253.666 344.969 249.135 356.111C244.604 367.253 212.404 437.819 210.757 441.941C209.111 446.064 219.423 448.54 232.212 453.083C245 457.627 252.428 462.579 256.142 457.627C259.856 452.675 269.352 433.684 269.352 433.684L265.229 537.292H417.503L410.892 429.177C410.892 429.177 416.674 344.993 416.265 341.688C415.857 338.383 365.507 318.575 360.134 318.166C354.761 317.757 334.136 318.971 334.136 318.971Z" stroke="#263238" stroke-linecap="round" stroke-linejoin="round"/>
<path d="M371.697 320.642C371.697 320.642 370.459 344.993 365.086 380.895C359.713 416.797 359.726 415.139 359.726 431.653C359.726 448.168 363.848 500.981 363.848 500.981H370.459C370.459 500.981 365.086 445.271 365.507 430.824C365.928 416.377 369.221 387.494 372.935 374.705C376.649 361.917 377.887 323.947 377.887 323.947L371.697 320.642Z" fill="white" stroke="#263238" stroke-linecap="round" stroke-linejoin="round"/>
<path d="M320.642 321.088L311.852 323.118C311.852 323.118 308.138 347.049 309.797 370.162C311.456 393.275 313.92 400.283 313.92 400.283C313.92 400.283 315.987 344.164 317.634 333.851C319.28 323.539 320.642 321.088 320.642 321.088Z" fill="white" stroke="#263238" stroke-linecap="round" stroke-linejoin="round"/>
<path d="M313.92 400.258C313.92 400.258 314.749 426.256 313.09 453.492C311.431 480.728 311.444 504.671 311.444 504.671L318.872 505.079C318.872 505.079 318.042 473.721 318.042 447.302C318.061 431.529 316.682 415.786 313.92 400.258Z" fill="white" stroke="#263238" stroke-linecap="round" stroke-linejoin="round"/>
<path d="M325.47 344.969L326.708 303.285H369.63L368.8 341.255" fill="white"/>
<path d="M325.47 344.969L326.708 303.285H369.63L368.8 341.255" stroke="#263238" stroke-linecap="round" stroke-linejoin="round"/>
<path d="M369.382 314.7L358.946 303.31H326.758L325.854 333.79C328.256 334.73 333.963 336.03 343.892 333.133C356.705 329.419 368.02 316.668 369.419 315.046L369.382 314.7Z" fill="#263238" stroke="#263238" stroke-linecap="round" stroke-linejoin="round"/>
<path d="M306.554 201.559C297.962 210.15 290.757 222.048 290.398 232.509C289.964 244.827 282.759 262.221 278.934 263.917C277.089 264.627 275.371 265.63 273.846 266.888C273.846 266.888 281.905 270.713 285.297 270.28C287.482 270.003 289.624 269.454 291.673 268.646C290.349 270.42 288.931 272.123 287.426 273.747L285.73 275.443L292.515 277.139C290 278.744 287.292 280.026 284.455 280.952C282.652 281.441 280.8 281.728 278.934 281.806C278.934 281.806 279.788 289.444 288.702 291.995C293.788 293.509 299.138 293.931 304.399 293.233L299.311 298.358C299.311 298.358 300.549 299.596 309.067 300.054C317.584 300.512 321.793 297.937 321.793 297.937L374 295.808C374 295.808 375.238 300.054 381.217 302.171C387.197 304.288 390.131 305.142 390.131 305.142C390.131 305.142 389.277 301.75 388.893 300.054C388.509 298.358 387.655 291.561 387.655 291.561C387.655 291.561 390.626 299.2 404.628 299.633C418.63 300.066 423.297 291.995 423.297 291.995C421.601 291.895 419.95 291.413 418.467 290.586C416.983 289.758 415.706 288.606 414.73 287.216C411.338 282.549 410.905 280.84 410.905 280.84C410.905 280.84 416.426 282.97 420.672 282.549C423.482 282.135 426.125 280.957 428.311 279.144C428.311 279.144 411.759 267.259 410.905 259.2C410.05 251.141 407.933 219.733 401.991 209.123C396.049 198.513 385.897 188.758 359.552 184.078C345.328 181.602 330.385 185.725 317.956 192.645C313.766 195.082 309.93 198.081 306.554 201.559Z" fill="#263238" stroke="#263238" stroke-linecap="round" stroke-linejoin="round"/>
<path d="M374.26 240.259C374.26 240.259 348.967 262.196 309.661 268.275C309.661 268.275 309.772 293.245 323.279 309.921C337.912 328.033 346.9 328.181 350.663 327.884C360.902 327.08 381.774 302.901 382.703 298.692C383.631 294.483 385.018 278.55 385.018 268.275C385.018 257.999 372.848 251.017 374.26 240.259Z" fill="white" stroke="#263238" stroke-linecap="round" stroke-linejoin="round"/>
<path d="M301.639 275.48C301.287 275.48 300.95 275.34 300.702 275.092C300.454 274.843 300.314 274.506 300.314 274.155C300.314 273.804 300.454 273.467 300.702 273.218C300.95 272.97 301.287 272.83 301.639 272.83C353.498 271.394 372.143 242.673 372.328 242.376C372.53 242.115 372.822 241.938 373.147 241.881C373.472 241.824 373.806 241.89 374.085 242.067C374.364 242.243 374.567 242.517 374.654 242.836C374.741 243.154 374.706 243.493 374.557 243.787C373.789 245.025 355.083 273.994 301.713 275.48H301.639Z" fill="#263238"/>
<path d="M325.26 283.23C328.245 283.806 331.312 283.806 334.297 283.23" stroke="#263238" stroke-linecap="round" stroke-linejoin="round"/>
<path d="M363.254 282.759C366.706 283.41 370.257 283.334 373.678 282.536" stroke="#263238" stroke-linecap="round" stroke-linejoin="round"/>
<path d="M368.924 279.355C368.924 281.41 368.095 283.069 367.055 283.069C366.015 283.069 365.198 281.397 365.198 279.355C365.198 277.312 366.027 275.641 367.055 275.641C368.082 275.641 368.924 277.312 368.924 279.355Z" fill="#263238"/>
<path d="M386.615 273.598C385.86 272.15 384.139 271.221 381.366 270.837C377.021 270.231 353.461 271.803 352.459 271.865L352.05 271.951C351.798 272.058 351.554 272.182 351.32 272.323V272.199H343.978V272.323C343.744 272.182 343.5 272.058 343.248 271.951L342.839 271.865C341.837 271.803 318.277 270.218 313.932 270.837C311.208 271.221 309.438 272.15 308.683 273.598C308.405 274.12 308.26 274.703 308.26 275.294C308.26 275.885 308.405 276.468 308.683 276.99C308.782 277.201 308.906 277.547 309.067 278.005C310.429 281.843 314.019 292.044 326.82 292.539H328.503C341.267 292.539 344.387 286.51 346.293 280.803C346.442 280.341 346.562 279.869 346.652 279.392H348.547C348.637 279.869 348.757 280.341 348.906 280.803C350.812 286.51 353.919 292.539 366.696 292.539H368.379C381.155 292.044 384.77 281.843 386.132 278.005C386.293 277.547 386.417 277.201 386.516 276.99C386.809 276.476 386.971 275.898 386.988 275.306C387.006 274.715 386.877 274.128 386.615 273.598ZM346.306 274.972H348.992C348.741 275.504 348.574 276.072 348.497 276.656H346.801C346.725 276.068 346.558 275.496 346.306 274.96V274.972ZM343.718 279.924C341.837 285.569 339.286 290.187 326.981 289.741C316.086 289.321 313.028 280.716 311.716 277.04C311.506 276.445 311.345 275.987 311.208 275.715C311.129 275.586 311.081 275.441 311.068 275.291C311.055 275.14 311.078 274.989 311.134 274.848C311.246 274.638 311.815 273.895 314.328 273.536C315.324 273.445 316.324 273.408 317.324 273.425C323.638 273.425 336.699 274.192 342.394 274.576C343.037 274.935 344.932 276.284 343.718 279.949V279.924ZM384.09 275.715C383.953 275.987 383.792 276.445 383.582 277.04C382.27 280.754 379.212 289.321 368.317 289.741C356.024 290.2 353.461 285.569 351.58 279.924C350.342 276.21 352.261 274.972 352.904 274.576C359.825 274.118 377.664 273.066 380.97 273.536C383.446 273.895 384.052 274.638 384.164 274.848C384.227 274.991 384.254 275.148 384.241 275.304C384.228 275.459 384.176 275.609 384.09 275.74V275.715Z" fill="white" stroke="#263238" stroke-linecap="round" stroke-linejoin="round"/>
<path d="M340.351 296.513C340.351 296.513 344.832 300.005 348.064 299.757C351.295 299.509 354.538 297.281 355.281 295.771" stroke="#263238" stroke-linecap="round" stroke-linejoin="round"/>
<path d="M336.872 302.74C336.872 302.74 338.692 308.708 349.809 308.212C357.683 307.853 359.515 302.022 359.515 302.022" stroke="#263238" stroke-linecap="round" stroke-linejoin="round"/>
<path d="M356.544 268.646C356.544 268.646 364.74 264.189 371.214 264.932C377.689 265.675 380.413 267.916 380.413 267.916" stroke="#263238" stroke-width="2" stroke-linecap="round" stroke-linejoin="round"/>
<path d="M338.927 268.398C335.031 266.868 330.851 266.193 326.671 266.418C322.805 266.72 319.029 267.731 315.529 269.401" stroke="#263238" stroke-width="2" stroke-linecap="round" stroke-linejoin="round"/>
<path d="M330.546 279.355C330.546 281.41 329.704 283.069 328.677 283.069C327.649 283.069 326.807 281.397 326.807 279.355C326.807 277.312 327.649 275.641 328.677 275.641C329.704 275.641 330.546 277.312 330.546 279.355Z" fill="#263238"/>
<path d="M409.246 338.358C409.246 338.358 429.883 344.969 434.006 349.091C438.128 353.214 463.718 413.876 471.146 423.78C478.574 433.684 474.86 438.227 471.146 441.941C467.432 445.655 443.91 455.559 434.835 456.389C425.761 457.218 416.265 459.298 412.13 443.204C407.995 427.11 407.178 403.997 403.056 392.037C398.933 380.078 397.695 378.419 397.695 378.419" fill="#EFE5D9"/>
<g opacity="0.4">
<path d="M423.532 389.859C412.96 396.049 408.02 400.728 405.755 403.477C406.188 406.039 406.596 408.738 406.993 411.524C408.169 410.471 408.862 409.778 409.023 409.629C409.302 409.372 409.518 409.055 409.654 408.701C409.654 408.701 412.254 403.6 426.677 395.157C433.51 391.146 442.932 387.308 451.362 384.263L448.75 378.618C440.04 381.64 431.603 385.401 423.532 389.859Z" fill="white"/>
<path d="M433.634 405.841C418.295 413.876 411.796 421.762 409.06 426.751C409.53 429.995 410.038 433.189 410.62 436.246C411.288 435.675 411.917 435.058 412.502 434.402C412.858 433.966 413.096 433.446 413.195 432.891C413.195 432.792 415.324 422.418 436.506 411.325C443.94 407.407 451.932 404.655 460.202 403.167C459.298 401.285 458.369 399.342 457.441 397.348C449.141 399.03 441.124 401.89 433.634 405.841Z" fill="white"/>
<path d="M414.73 449.939C415.747 451.888 417.221 453.561 419.026 454.816C421.799 449.963 428.769 440.307 443.055 433.535C452.23 429.377 461.899 426.411 471.827 424.708L471.17 423.78C470.102 422.268 469.127 420.693 468.249 419.063C458.644 420.89 449.296 423.87 440.406 427.939C429.935 432.691 421.031 440.32 414.73 449.939Z" fill="white"/>
<path d="M400.183 384.052C400.852 385.798 401.694 388.076 402.659 391.022C402.702 390.995 402.739 390.962 402.771 390.923C402.955 390.754 403.117 390.563 403.254 390.354C403.452 390.069 419.806 365.656 439.453 359.045C438.401 356.903 437.46 355.021 436.643 353.474C419.422 359.701 405.296 377.095 400.183 384.052Z" fill="white"/>
<path d="M408.243 341.849L411.883 339.212L409.246 338.333L408.243 341.849Z" fill="white"/>
<path d="M404.727 354.068L401.842 363.972C410.583 357.175 420.004 350.416 427.457 345.216C425.352 344.238 423 343.285 420.697 342.394C415.782 345.885 410.261 349.859 404.727 354.068Z" fill="white"/>
</g>
<path d="M409.246 338.358C409.246 338.358 429.883 344.969 434.006 349.091C438.128 353.214 463.718 413.876 471.146 423.78C478.574 433.684 474.86 438.227 471.146 441.941C467.432 445.655 443.91 455.559 434.835 456.389C425.761 457.218 416.265 459.298 412.13 443.204C407.995 427.11 407.178 403.997 403.056 392.037C398.933 380.078 397.695 378.419 397.695 378.419" stroke="#263238" stroke-miterlimit="10"/>
<path d="M472.792 464.25C472.792 464.25 469.078 448.156 465.785 442.374C462.492 436.593 437.72 441.557 428.224 445.271C418.729 448.985 369.63 461.774 354.365 465.488C339.101 469.202 329.184 473.745 323.824 479.106C318.463 484.467 293.703 496.846 295.35 499.322C296.996 501.798 304.845 501.798 310.206 501.798C315.566 501.798 328.776 497.676 330.014 496.846C330.89 496.333 331.883 496.051 332.898 496.029L323.824 503.036C323.824 503.036 325.062 506.751 329.605 503.866C334.149 500.981 342.394 495.2 344.04 493.962C345.687 492.724 353.536 489.839 356.012 487.363C357.752 485.41 359.146 483.174 360.134 480.752C360.134 480.752 416.265 482.411 442.263 478.276C468.261 474.142 471.554 467.11 472.792 464.25Z" fill="white" stroke="#263238" stroke-linecap="round" stroke-linejoin="round"/>
<path d="M305.254 501.774C305.254 501.774 305.254 499.719 309.797 498.06C314.341 496.401 322.177 494.346 331.252 486.918" stroke="#263238" stroke-linecap="round" stroke-linejoin="round"/>
<path d="M332.898 496.005C332.898 496.005 338.68 491.87 341.985 488.985" stroke="#263238" stroke-linecap="round" stroke-linejoin="round"/>
<path d="M299.893 500.957C299.893 500.957 299.472 497.651 304.845 495.175C310.218 492.699 315.566 491.053 325.47 483.204" stroke="#263238" stroke-linecap="round" stroke-linejoin="round"/>
<path d="M254.496 484.863C254.496 484.863 251.611 474.154 247.476 455.584C243.341 437.014 227.26 434.947 220.24 436.605C213.221 438.264 208.69 443.612 210.757 454.754C212.825 465.896 230.144 498.085 232.62 500.981C235.096 503.878 252.428 501.799 256.972 496.438C261.515 491.077 254.496 484.863 254.496 484.863Z" fill="white" stroke="#263238" stroke-linecap="round" stroke-linejoin="round"/>
<path d="M237.164 498.914C237.164 498.914 251.611 488.181 256.142 486.125C260.673 484.07 276.78 484.058 282.14 485.296C287.501 486.534 294.52 501.39 294.52 501.39C294.52 501.39 248.714 503.866 242.116 503.866C235.517 503.866 233.041 505.104 232.62 500.981" fill="white"/>
<path d="M237.164 498.914C237.164 498.914 251.611 488.181 256.142 486.125C260.673 484.07 276.78 484.058 282.14 485.296C287.501 486.534 294.52 501.39 294.52 501.39C294.52 501.39 248.714 503.866 242.116 503.866C235.517 503.866 233.041 505.104 232.62 500.981" stroke="#263238" stroke-linecap="round" stroke-linejoin="round"/>
<path d="M267.284 503.012C267.284 503.012 256.563 491.87 254.496 489.815" stroke="#263238" stroke-linecap="round" stroke-linejoin="round"/>
<path d="M275.542 501.774L263.162 487.339" stroke="#263238" stroke-linecap="round" stroke-linejoin="round"/>
<path d="M285.854 502.195C285.854 502.195 277.609 490.248 273.066 486.534" stroke="#263238" stroke-linecap="round" stroke-linejoin="round"/>
<path d="M146.307 407.389H133.06V427.915H146.307V407.389Z" fill="#EFE5D9" stroke="#263238" stroke-linecap="round" stroke-linejoin="round"/>
<path d="M132.912 413.591L140.699 407.81" stroke="#263238" stroke-linecap="round" stroke-linejoin="round"/>
<path d="M133.196 418.494L146.307 407.389" stroke="#263238" stroke-linecap="round" stroke-linejoin="round"/>
<path d="M135.214 416.76L139.547 423.111" stroke="#263238" stroke-linecap="round" stroke-linejoin="round"/>
<path d="M138.965 413.876L143.88 421.378" stroke="#263238" stroke-linecap="round" stroke-linejoin="round"/>
<path d="M142.729 410.706L146.183 417.045" stroke="#263238" stroke-linecap="round" stroke-linejoin="round"/>
<path d="M134.063 428.014L146.183 419.36" stroke="#263238" stroke-linecap="round" stroke-linejoin="round"/>
<path d="M140.996 427.444L145.898 424.56" stroke="#263238" stroke-linecap="round" stroke-linejoin="round"/>
<path d="M225.786 427.333L223.137 430.366H159.628L156.991 427.333H120.024V455.621H262.741V427.333H225.786Z" fill="white" stroke="#263238" stroke-linecap="round" stroke-linejoin="round"/>
<path d="M289.271 488.317H248.788L240.11 417.268H297.949L289.271 488.317Z" fill="white" stroke="#263238" stroke-linecap="round" stroke-linejoin="round"/>
<path d="M285.594 417.268L284.988 488.317H289.271L297.949 417.268H285.594Z" fill="white" stroke="#263238" stroke-linecap="round" stroke-linejoin="round"/>
<path d="M221.713 435.863H162.277C161.135 435.863 160.21 436.788 160.21 437.93V438.215C160.21 439.357 161.135 440.282 162.277 440.282H221.713C222.855 440.282 223.781 439.357 223.781 438.215V437.93C223.781 436.788 222.855 435.863 221.713 435.863Z" fill="white" stroke="#263238" stroke-linecap="round" stroke-linejoin="round"/>
<path d="M126.202 455.584V543.754H341.205V513.361C341.205 512.313 340.998 511.276 340.597 510.308C340.196 509.339 339.607 508.46 338.866 507.72C338.124 506.979 337.244 506.392 336.275 505.992C335.306 505.592 334.268 505.387 333.22 505.389H184.276C182.694 505.389 181.176 504.76 180.057 503.641C178.938 502.522 178.309 501.004 178.309 499.422V487.549C178.311 481.231 179.886 475.013 182.892 469.456C185.899 463.899 190.242 459.178 195.53 455.72L126.202 455.584Z" fill="white" stroke="#263238" stroke-linecap="round" stroke-linejoin="round"/>
<path d="M120.086 455.584V543.754H335.015V505.376H178.086C176.506 505.373 174.991 504.743 173.875 503.624C172.758 502.506 172.131 500.99 172.131 499.409V487.537C172.142 481.215 173.728 474.996 176.745 469.441C179.762 463.886 184.117 459.17 189.414 455.72L120.086 455.584Z" fill="white" stroke="#263238" stroke-linecap="round" stroke-linejoin="round"/>
<path d="M138.693 539.149C146.187 539.149 152.262 533.074 152.262 525.581C152.262 518.087 146.187 512.012 138.693 512.012C131.199 512.012 125.125 518.087 125.125 525.581C125.125 533.074 131.199 539.149 138.693 539.149Z" fill="#858585" stroke="#263238" stroke-linecap="round" stroke-linejoin="round"/>
<path d="M247.315 476.246L248.789 488.317H289.271L290.744 476.246H247.315Z" fill="#858585" stroke="#263238" stroke-linecap="round" stroke-linejoin="round"/>
<path d="M285.087 476.246L284.988 488.317H289.271L290.744 476.246H285.087Z" fill="#666666" stroke="#263238" stroke-linecap="round" stroke-linejoin="round"/>
<path d="M198.934 553.596C198.934 553.596 122.413 555.85 116.793 554.723C111.172 553.596 134.793 545.723 166.313 541.786C197.832 537.849 249.581 554.166 249.581 554.166L198.934 553.596Z" fill="#EFE5D9" stroke="#263238" stroke-linecap="round" stroke-linejoin="round"/>
<path d="M289.42 497.763C283.787 497.936 278.154 498.419 272.546 499.063C262.295 500.226 242.549 498.914 234.799 506.664C234.799 506.664 223.546 524.107 219.052 531.424C214.558 538.74 211.178 543.234 206.672 544.918C202.165 546.602 183.038 554.488 183.038 554.488H342.827C342.827 554.488 366.349 555.305 374.186 545.748C382.691 535.423 368.218 523.662 360.827 518.128C348.633 508.991 335.213 505.067 320.63 501.031C310.45 498.38 299.928 497.278 289.42 497.763Z" fill="#EFE5D9" stroke="#263238" stroke-linecap="round" stroke-linejoin="round"/>
<path d="M336.736 541.452C336.736 541.452 361.904 536.5 384.003 540.833C406.101 545.166 437.398 541.452 452.093 542.677C466.788 543.903 490.768 546.973 490.768 546.973C490.768 546.973 453.937 553.163 434.909 554.339C415.881 555.515 398.079 556.815 398.079 556.815C398.079 556.815 388.262 557.434 362.474 549.449L336.736 541.452Z" fill="#EFE5D9" stroke="#263238" stroke-linecap="round" stroke-linejoin="round"/>
<path d="M283.96 554.339C295.742 552.991 307.296 550.102 318.327 545.747C337.355 538.381 348.41 539.557 362.524 545.128C376.637 550.699 381.552 555.565 398.128 556.79L283.96 554.339Z" fill="#263238" stroke="#263238" stroke-linecap="round" stroke-linejoin="round"/>
</svg>
